<svg xmlns="http://www.w3.org/2000/svg" version="1.1" xmlns:xlink="http://www.w3.org/1999/xlink" xmlns:svgjs="http://svgjs.dev/svgjs" viewBox="0 0 1920 1080"><rect width="1920" height="1080" fill="#8838ff"></rect><g transform="matrix(0.5750000000000001,0.9959292143521044,-0.9959292143521044,0.5750000000000001,938.0360171403646,-708.3940554931305)"><path d="M0,-1080C8.764972102065125,-960.8855443154301,58.300100257836384,-644.3321423122985,52.58983261239075,-365.3132658925809C46.87956496694512,-86.29438947286326,-23.77575379922002,305.63998206115815,-34.26160587267378,594.1132585183057C-44.74745794612755,882.5865349754531,-16.035547473777445,1104.5452692700217,-10.325279828331816,1365.526392850304C-4.615012182886185,1626.5075164305865,-1.720879971388636,2027.5877321417174,0,2160L 1920 2160 L 1920 -1080 Z" fill="url(&quot;#SvgjsLinearGradient1067&quot;)"></path><path d="M274.2857142857143,-1080C273.785865151076,-1001.4585326133817,273.5729972816522,-785.43384315566,271.28661947788464,-608.7511956802905C269.0002416741171,-432.06854820492094,268.7293516482968,-226.04456794337057,260.5674474631089,-19.90411514778303C252.40554327792103,186.23633764780453,217.05671337015212,451.8580674500565,222.31519436675723,628.091521093235C227.57367536336233,804.3249747364134,291.18082294597275,865.438239364143,292.1183334427395,1037.496606711288C293.0558439395063,1209.5549740584331,230.91236054019535,1473.357826294653,227.9402573473578,1660.4417251761051C224.96815415452025,1847.5256240575573,266.5614714626549,2076.740287529351,274.2857142857143,2160L 1920 2160 L 1920 -1080 Z" fill="url(&quot;#SvgjsLinearGradient1068&quot;)"></path><path d="M548.5714285714286,-1080C559.3119723698444,-984.6085891493647,606.4099069917831,-674.7672003186423,613.0146913619234,-507.65153489618785C619.6194757320636,-340.53586947373344,591.5921211350545,-264.8571777237654,588.2001347922701,-77.30600746527332C584.8081484494857,110.24516279321875,609.9049690966762,413.1583107744609,592.6627733052165,617.6554866547644C575.4205775137569,822.152662535068,478.1937364527076,987.3861451621495,484.7469600435122,1149.677047816548C491.30018363431685,1311.9679504709466,621.3447034287249,1423.0137438839138,631.9821148500442,1591.4009025811558C642.6195262713636,1759.788061278398,562.4732096178645,2065.233483763526,548.5714285714286,2160L 1920 2160 L 1920 -1080 Z" fill="url(&quot;#SvgjsLinearGradient1069&quot;)"></path><path d="M822.8571428571428,-1080C833.9307216607912,-993.6707798761814,897.2469428108625,-705.6019720634292,889.2986156790329,-562.0246792570887C881.3502885472033,-418.4473864507481,799.2625306600912,-358.5438071588868,775.1671800661653,-218.5362431619564C751.0718294722394,-78.528679165026,741.8937186486555,103.6565826839674,744.7265121154771,278.0207047244937C747.5593055822987,452.3848267650201,789.2254181958602,659.8262582378912,792.1639408670952,827.6484890812014C795.1024635383302,995.4707199245116,753.2214557025892,1125.2989750620509,762.3576481428868,1284.9540897843547C771.4938405831844,1444.6092045066584,836.8978463898383,1639.738192379084,846.9810955088809,1785.5791774150248C857.0643446279236,1931.4201624509656,826.8778016324325,2097.596529569171,822.8571428571428,2160L 1920 2160 L 1920 -1080 Z" fill="url(&quot;#SvgjsLinearGradient1070&quot;)"></path><path d="M1097.142857142857,-1080C1084.8254122486514,-984.2696787049582,1027.266079589715,-680.4893736594546,1023.2381877776236,-505.6180722297493C1019.2102959655322,-330.74677080004403,1057.662829430541,-213.94925360425452,1072.9755062703084,-30.772191421768085C1088.2881831100758,152.40487076071832,1126.7434454132308,394.82778601259145,1115.1142488162277,593.4443008651691C1103.4850522192246,792.0608157177468,1019.681702445258,1001.1038029134487,1003.2003266882903,1160.9268976936976C986.7189509313225,1320.7499924739466,1000.568905865327,1385.8706858289454,1016.2259942744215,1552.3828695466625C1031.883082683516,1718.8950532643796,1083.656713331451,2058.730478257777,1097.142857142857,2160L 1920 2160 L 1920 -1080 Z" fill="url(&quot;#SvgjsLinearGradient1071&quot;)"></path><path d="M1371.4285714285716,-1080C1378.5879357481308,-1026.3252453887333,1420.2337685118177,-899.5450142658264,1414.3847573459268,-757.9514723324002C1408.5357461800359,-616.357930398974,1354.066526652645,-394.35926428993287,1336.3345044332261,-230.4387483994428C1318.6024822138072,-66.51823250895274,1286.3118217716324,103.76821819871564,1307.9926240294135,225.5716230105402C1329.6734262871946,347.37502782236476,1451.7677412206938,366.5530057641382,1466.4193179799136,500.3816804715045C1481.0708947391333,634.2103551788708,1399.6723306080676,900.4999750383752,1395.9020845847317,1028.5436712547382C1392.1318385613959,1156.5873674711013,1461.7901546991345,1158.9052974092933,1443.7978418398986,1268.6438577696827C1425.8055289806628,1378.382418130072,1300.0097524978712,1538.4156763786884,1287.9482074293167,1686.9750334170747C1275.886662360762,1835.5343904554609,1357.5151774286958,2081.1625055695126,1371.4285714285716,2160L 1920 2160 L 1920 -1080 Z" fill="url(&quot;#SvgjsLinearGradient1072&quot;)"></path><path d="M1645.7142857142856,-1080C1652.8903241401524,-937.2647278499085,1695.4782704884929,-480.62921708154784,1688.7705162694872,-223.58836709945066C1682.0627620504815,33.452482882646535,1598.3959770784186,198.06882201267632,1605.4677604002522,462.24509989258326C1612.539543722086,726.4213777724901,1724.4934619814835,1078.5101501620882,1731.2012162004892,1361.469300179991C1737.9089704194948,1644.4284501978939,1659.962107461986,2026.9115500299986,1645.7142857142856,2160L 1920 2160 L 1920 -1080 Z" fill="url(&quot;#SvgjsLinearGradient1073&quot;)"></path></g><defs><linearGradient x1="0.1" y1="0" x2="0" y2="1" id="SvgjsLinearGradient1067"><stop stop-color="#8838ff" offset="0"></stop><stop stop-color="#6738ff" offset="0"></stop></linearGradient><linearGradient x1="0.1" y1="0" x2="0" y2="1" id="SvgjsLinearGradient1068"><stop stop-color="#a264ff" offset="0"></stop><stop stop-color="#8864ff" offset="0.14285714285714285"></stop></linearGradient><linearGradient x1="0.1" y1="0" x2="0" y2="1" id="SvgjsLinearGradient1069"><stop stop-color="#bc8fff" offset="0"></stop><stop stop-color="#a98fff" offset="0.2857142857142857"></stop></linearGradient><linearGradient x1="0.1" y1="0" x2="0" y2="1" id="SvgjsLinearGradient1070"><stop stop-color="#d6bbff" offset="0"></stop><stop stop-color="#cbbbff" offset="0.42857142857142855"></stop></linearGradient><linearGradient x1="0.1" y1="0" x2="0" y2="1" id="SvgjsLinearGradient1071"><stop stop-color="#f0e6ff" offset="0"></stop><stop stop-color="#ece6ff" offset="0.5714285714285714"></stop></linearGradient><linearGradient x1="0.1" y1="0" x2="0" y2="1" id="SvgjsLinearGradient1072"><stop stop-color="#ffffff" offset="0"></stop><stop stop-color="#ffffff" offset="0.7142857142857143"></stop></linearGradient><linearGradient x1="0.1" y1="0" x2="0" y2="1" id="SvgjsLinearGradient1073"><stop stop-color="#ffffff" offset="0"></stop><stop stop-color="#ffffff" offset="0.8571428571428571"></stop></linearGradient></defs></svg>